#!OML:ASF E:\inclinewalkrobotboard\Project 1\Capture day 1\Session 1\subject1.ASF
:FULLY-SPECIFIED
:DEGREES
456
root 8.13083 25.086 -12.1457 -172.29 2.4087 179.942
lowerback -7.51751 0.368876 -6.72159
upperback 1.40239 1.04586 1.67439
thorax 5.55515 0.26832 5.68128
lowerneck -1.60072 0.740769 -7.20343
upperneck 4.02874 0.69997 9.44449
head 1.53194 0.346045 4.45626
rclavicle 8.41108e-015 -7.85199e-015
rhumerus -38.6697 -28.6592 -72.4203
rradius 26.2941
rwrist 15.1333
rhand -16.3463 -36.3008
rfingers 7.12502
rthumb 9.86605 -66.0496
lclavicle 8.41108e-015 -7.85199e-015
lhumerus -30.4742 11.5452 84.1332
lradius 17.0928
lwrist -30.0011
lhand -24.4121 -21.0415
lfingers 7.12502
lthumb 2.07931 8.92809
rfemur -8.35392 8.0447 19.0784
rtibia 14.813
rfoot -25.4541 -5.28068
rtoes -20.0408
lfemur -7.1327 -9.61919 -21.0725
ltibia 14.4012
lfoot -29.9233 2.62169
ltoes -62.3752
457
root 8.13155 25.0841 -12.1577 -172.329 2.27147 179.891
lowerback -7.68066 0.281792 -6.68891
upperback 1.4594 0.939867 1.65679
thorax 5.72494 0.20872 5.6363
lowerneck -0.797012 0.445975 -6.8068
upperneck 3.6119 0.574142 8.96554
head 1.2627 0.382665 4.18939
rclavicle 1.35422e-015 1.98785e-015
rhumerus -38.5666 -28.3586 -72.5488
rradius 26.301
rwrist 15.1554
rhand -16.0664 -35.8555
rfingers 7.12502
rthumb 10.1361 -65.5914
lclavicle 1.35422e-015 1.98785e-015
lhumerus -30.7736 10.7082 84.4404
lradius 17.7157
lwrist -29.2745
lhand -24.3394 -20.7461
lfingers 7.12502
lthumb 2.14955 9.2228
rfemur -8.14294 7.76012 19.0348
rtibia 14.662
rfoot -25.4454 -5.09691
rtoes -19.6836
lfemur -6.87556 -9.80643 -21.219
ltibia 14.1224
lfoot -29.87 2.66901
ltoes -62.4137
458
root 8.12894 25.0851 -12.1757 -172.446 2.0343 179.851
lowerback -7.85332 0.277779 -6.54675
upperback 1.49467 0.93838 1.55687
thorax 5.86373 0.208032 5.45314
lowerneck -0.879203 0.614181 -6.78731
upperneck 3.65822 0.51323 9.14729
head 1.29412 0.236824 4.24888
rclavicle 2.60905e-015 5.56597e-015
rhumerus -38.6938 -28.3369 -72.5441
rradius 26.2207
rwrist 15.0157
rhand -15.866 -35.4664
rfingers 7.12502
rthumb 10.3295 -65.1927
lclavicle 2.60905e-015 5.56597e-015
lhumerus -30.895 10.1356 84.5751
lradius 18.0519
lwrist -29.0499
lhand -24.4218 -21.1896
lfingers 7.12502
lthumb 2.07004 8.78006
rfemur -7.74769 7.21322 18.9996
rtibia 14.4033
rfoot -25.4103 -4.78316
rtoes -20.2099
lfemur -6.46015 -10.1076 -21.4247
ltibia 13.7798
lfoot -29.8107 2.75136
ltoes -62.3782
459
root 8.13129 25.0852 -12.1819 -172.502 1.98382 179.844
lowerback -7.94099 0.338671 -6.44307
upperback 1.53172 1.01873 1.50818
thorax 5.94342 0.248022 5.35482
lowerneck -1.0196 0.570202 -6.86664
upperneck 3.68125 0.450641 9.33969
head 1.33368 0.208535 4.3355
rclavicle 7.05686e-015 6.85807e-015
rhumerus -38.6415 -28.6082 -72.4276
rradius 25.9104
rwrist 14.9825
rhand -15.9898 -35.2574
rfingers 7.12502
rthumb 10.21 -64.9896
lclavicle 7.05686e-015 6.85807e-015
lhumerus -30.5166 10.3996 84.5598
lradius 17.7855
lwrist -29.6322
lhand -24.4479 -21.608
lfingers 7.12502
lthumb 2.04476 8.36196
rfemur -7.59882 7.08178 19.0118
rtibia 14.3071
rfoot -25.4229 -4.66859
rtoes -19.8857
lfemur -6.25061 -10.2932 -21.491
ltibia 13.5854
lfoot -29.7786 2.91562
ltoes -62.3131
460
root 8.1401 25.0844 -12.1781 -172.531 2.17148 179.972
lowerback -7.94098 0.478127 -6.31667
upperback 1.54769 1.19157 1.52834
thorax 5.93735 0.337267 5.32598
lowerneck -0.902952 0.450996 -7.04009
upperneck 3.67502 0.2775 9.51494
head 1.32757 0.117379 4.43128
rclavicle 9.20621e-015 6.95746e-016
rhumerus -38.7339 -29.0707 -72.1507
rradius 25.7128
rwrist 15.3403
rhand -15.8735 -35.611
rfingers 7.12502
rthumb 10.3222 -65.3377
lclavicle 9.20621e-015 6.95746e-016
lhumerus -30.5348 9.95618 84.7055
lradius 17.882
lwrist -29.2792
lhand -24.5638 -21.9717
lfingers 7.12502
lthumb 1.93287 7.99925
rfemur -7.65323 7.43561 19.2112
rtibia 14.384
rfoot -25.4345 -4.77402
rtoes -20.0938
lfemur -6.12106 -10.3315 -21.2993
ltibia 13.3941
lfoot -29.7017 3.18351
ltoes -62.3106
461
root 8.14807 25.0833 -12.1727 -172.517 2.32008 180.056
lowerback -7.95022 0.578113 -6.24011
upperback 1.53066 1.31832 1.5159
thorax 5.90833 0.40436 5.28466
lowerneck -1.64304 0.579787 -7.21667
upperneck 4.10137 0.423795 10.3225
head 1.42863 0.228947 4.28906
rclavicle -4.99446e-015 1.2921e-015
rhumerus -38.9651 -29.5361 -71.8334
rradius 25.5907
rwrist 15.8468
rhand -15.6913 -36.3417
rfingers 7.12502
rthumb 10.4979 -66.0596
lclavicle -4.99446e-015 1.2921e-015
lhumerus -30.4261 9.63691 84.7703
lradius 17.8248
lwrist -29.0778
lhand -24.9415 -22.3765
lfingers 7.12502
lthumb 1.56808 7.59748
rfemur -7.74256 7.67788 19.3339
rtibia 14.4292
rfoot -25.4082 -4.88568
rtoes -19.6151
lfemur -6.11992 -10.341 -21.154
ltibia 13.3391
lfoot -29.6713 3.35021
ltoes -62.3348
462
root 8.15398 25.0838 -12.1681 -172.447 2.28111 180.079
lowerback -7.99947 0.613195 -6.18694
upperback 1.49536 1.36459 1.47191
thorax 5.89438 0.431325 5.21401
lowerneck -1.70556 0.593943 -7.29898
upperneck 4.10458 0.425906 10.6279
head 1.43793 0.231659 4.39678
rclavicle 5.71506e-015 7.85199e-015
rhumerus -39.0954 -30.147 -71.5224
rradius 25.2974
rwrist 16.3503
rhand -15.7747 -36.7721
rfingers 7.12502
rthumb 10.4175 -66.4941
lclavicle 5.71506e-015 7.85199e-015
lhumerus -30.2471 9.60778 84.7452
lradius 17.7233
lwrist -29.2776
lhand -25.1427 -22.5086
lfingers 7.12502
lthumb 1.37374 7.46675
rfemur -7.80333 7.56198 19.3551
rtibia 14.3464
rfoot -25.3265 -4.81479
rtoes -19.8867
lfemur -6.30923 -10.3226 -21.0749
ltibia 13.4954
lfoot -29.6719 3.26794
ltoes -62.3513
